HIERARCHY
ROOT Hips
{
	OFFSET 0.000000 0.000000 0.000000 
	CHANNELS 6 Xposition Yposition Zposition Zrotation Yrotation Xrotation
	JOINT LeftUpLeg
	{
		OFFSET 1.363060 -1.794630 0.839290 
		CHANNELS 3 Zrotation Yrotation Xrotation
		JOINT LeftLeg
		{
			OFFSET 2.448110 -6.726130 0.000000 
			CHANNELS 3 Zrotation Yrotation Xrotation
			JOINT LeftFoot
			{
				OFFSET 2.562200 -7.039590 0.000000 
				CHANNELS 3 Zrotation Yrotation Xrotation
				JOINT LeftToeBase
				{
					OFFSET 0.157640 -0.433110 2.322550 
					CHANNELS 3 Zrotation Yrotation Xrotation
					End Site
					{
						OFFSET 0.000000 0.000000 0.000000 
					}
				}
			}
		}
	}
	JOINT RightUpLeg
	{
		OFFSET -1.305520 -1.794630 0.839290 
		CHANNELS 3 Zrotation Yrotation Xrotation
		JOINT RightLeg
		{
			OFFSET -2.542530 -6.985550 0.000000 
			CHANNELS 3 Zrotation Yrotation Xrotation
			JOINT RightFoot
			{
				OFFSET -2.568260 -7.056230 0.000000 
				CHANNELS 3 Zrotation Yrotation Xrotation
				JOINT RightToeBase
				{
					OFFSET -0.164730 -0.452590 2.363150 
					CHANNELS 3 Zrotation Yrotation Xrotation
					End Site
					{
						OFFSET 0.000000 0.000000 0.000000 
					}
				}
			}
		}
	}
	JOINT Spine
	{
		OFFSET 0.028270 2.035590 -0.193380 
		CHANNELS 3 Zrotation Yrotation Xrotation
		JOINT Spine1
		{
			OFFSET 0.056720 2.048850 -0.042750 
			CHANNELS 3 Zrotation Yrotation Xrotation
			JOINT Neck1
			{
				OFFSET -0.054170 1.746240 0.172020 
				CHANNELS 3 Zrotation Yrotation Xrotation
				JOINT Head
				{
					OFFSET 0.104070 1.761360 -0.123970 
					CHANNELS 3 Zrotation Yrotation Xrotation
					End Site
					{
						OFFSET 0.000000 0.000000 0.000000 
					}
				}
			}
			JOINT LeftArm
			{
				OFFSET 3.362410 1.200890 -0.311210 
				CHANNELS 3 Zrotation Yrotation Xrotation
				JOINT LeftForeArm
				{
					OFFSET 4.983000 -0.000000 -0.000000 
					CHANNELS 3 Zrotation Yrotation Xrotation
					JOINT LeftHand
					{
						OFFSET 3.483560 -0.000000 -0.000000 
						CHANNELS 3 Zrotation Yrotation Xrotation
						JOINT LeftHandIndex1
						{
							OFFSET 0.715260 -0.000000 -0.000000 
							CHANNELS 3 Zrotation Yrotation Xrotation
							End Site
							{
								OFFSET 0.000000 0.000000 0.000000 
							}
						}
					}
				}
			}
			JOINT RightArm
			{
				OFFSET -3.136600 1.374050 -0.404650 
				CHANNELS 3 Zrotation Yrotation Xrotation
				JOINT RightForeArm
				{
					OFFSET -5.241900 -0.000000 -0.000000 
					CHANNELS 3 Zrotation Yrotation Xrotation
					JOINT RightHand
					{
						OFFSET -3.444170 -0.000000 -0.000000 
						CHANNELS 3 Zrotation Yrotation Xrotation
						JOINT RightHandIndex1
						{
							OFFSET -0.622530 -0.000000 -0.000000 
							CHANNELS 3 Zrotation Yrotation Xrotation
							End Site
							{
								OFFSET 0.000000 0.000000 0.000000 
							}
						}
					}
				}
			}
		}
	}
}
MOTION
Frames: 16
Frame Time: 0.041667
3.136338 17.159867 -52.149989 -4.491572 -17.607282 30.765054 -10.333511 0.393275 -54.286965 12.795967 20.351997 67.183704 5.741073 -14.766834 1.170027 0.026500 -1.051100 -2.889500 9.525565 -2.305152 -11.148564 -0.099482 -9.093971 28.492535 -3.202232 1.115051 26.371688 -0.500700 4.536200 -12.590400 0.000090 5.237519 -4.990303 -3.267333 2.835291 -7.183226 0.170989 2.361781 -2.134473 -1.437800 0.556800 3.739200 -83.085511 23.341162 47.069941 92.115552 -59.258923 -66.309480 -0.512439 -0.168625 -12.214166 -7.125000 0.000000 0.000000 93.268572 0.889814 53.586860 -108.364314 57.283991 -80.238460 1.610730 -0.096093 -0.759973 7.125000 0.000000 0.000000 
3.097080 17.186146 -51.856091 -4.140773 -16.976866 30.558021 -10.809717 0.487842 -52.908360 12.472223 20.130449 66.272309 6.002852 -15.299515 0.870150 0.010300 -0.654900 -1.799800 9.704836 -2.715491 -12.940229 -1.265792 -10.587824 33.184974 -3.022583 1.203366 26.450111 -1.214900 6.991800 -19.691000 -0.003301 4.915518 -4.997096 -3.066459 2.658597 -7.303233 0.332902 2.317897 -2.203590 -1.351600 0.549600 3.743800 -83.208164 22.417442 47.456436 92.682347 -59.188963 -66.727890 -0.516216 -0.145633 -12.297266 -7.125000 0.000000 0.000000 93.001156 -0.802323 52.241427 -107.234821 57.506419 -79.409003 1.608790 -0.068258 -0.572562 7.125000 0.000000 0.000000 
3.071552 17.169843 -51.583002 -3.680787 -16.205601 30.252727 -11.353737 0.365522 -51.359105 12.191515 19.916646 65.464485 6.123350 -15.101359 0.153400 0.034500 -1.198500 -3.295100 9.824212 -3.119927 -14.633821 -2.688180 -12.044040 37.926882 -2.489190 0.221984 26.207587 -1.255300 7.103000 -20.020900 -0.006392 4.488055 -4.997056 -2.923716 2.428313 -7.464925 0.434354 2.285566 -2.315247 -1.297100 0.543000 3.702200 -83.412469 21.186535 47.768650 93.606075 -59.099298 -67.453772 -0.517412 -0.130463 -12.565535 -7.125000 0.000000 0.000000 92.762045 -2.577851 50.808280 -105.216897 57.820929 -77.884772 1.630136 -0.007199 -0.617874 7.125000 0.000000 0.000000 
3.031114 17.162013 -51.309592 -3.115673 -15.630125 29.894624 -11.913943 0.347064 -49.881691 11.858264 19.689632 64.584648 6.383077 -15.749254 0.106900 0.000100 -0.058100 -0.159500 9.809735 -3.283418 -16.227955 -4.181944 -13.326656 42.415123 -1.815717 -1.038529 24.806614 -1.776900 8.385000 -23.889800 -0.004486 4.069218 -4.967643 -2.581010 2.223169 -7.534775 0.451131 2.336255 -2.471547 -1.321900 0.564000 3.615800 -83.654928 19.753208 47.954532 95.414361 -58.987981 -68.905604 -0.498613 -0.114946 -12.738439 -7.125000 0.000000 0.000000 92.636663 -4.301166 49.222885 -102.106941 58.187967 -75.525792 1.642369 0.068617 -0.762130 7.125000 0.000000 0.000000 
2.981667 17.230231 -50.998961 -2.233030 -15.092128 29.446215 -12.660876 0.104479 -48.530013 11.441671 19.434892 63.588169 6.582817 -16.420241 0.509443 0.000700 0.164900 0.453000 9.498992 -3.254354 -18.125531 -5.738267 -14.464490 46.737717 -0.979205 -2.645089 22.402464 -1.124600 6.736000 -18.935600 -0.018031 3.495282 -4.922330 -2.131444 1.952415 -7.544728 0.477420 2.474247 -2.689677 -1.342000 0.627000 3.498600 -84.151059 17.493577 47.566507 98.276049 -58.765474 -71.287282 -0.482074 -0.083221 -12.783082 -7.125000 0.000000 0.000000 92.887063 -5.872274 47.335742 -96.028569 58.495224 -70.792681 1.701439 0.196966 -1.272194 7.125000 0.000000 0.000000 
2.941872 17.241279 -50.715361 -1.615494 -14.419560 29.172351 -13.150194 -0.124105 -47.147288 11.080749 19.194600 62.656108 6.769733 -16.881920 0.579709 0.005500 0.477000 1.310600 9.332086 -3.303950 -20.021574 -7.251951 -15.472491 51.024386 -0.418792 -3.594349 20.633675 -1.258100 7.110600 -20.043400 -0.020686 2.991967 -4.902817 -1.819188 1.703399 -7.616858 0.550607 2.539922 -2.858034 -1.319600 0.662600 3.409100 -84.493183 15.621604 47.486436 100.508573 -58.521300 -73.132604 -0.472739 -0.061129 -12.818185 -7.125000 0.000000 0.000000 92.904563 -7.565673 45.659736 -91.579002 58.464943 -67.269359 1.737540 0.278531 -1.536786 7.125000 0.000000 0.000000 
2.902614 17.252005 -50.431331 -1.034122 -13.676937 28.948574 -13.538104 -0.438034 -45.749603 10.708417 18.946413 61.684503 6.938423 -17.277839 0.671345 0.010100 0.648300 1.781500 9.151355 -3.293857 -22.067850 -8.752626 -16.360544 55.210282 0.137434 -4.525706 18.501695 -1.442200 7.592200 -21.482000 -0.019578 2.462227 -4.887188 -1.535621 1.438053 -7.684672 0.639603 2.607401 -3.025019 -1.284000 0.701600 3.316200 -84.848537 13.564281 47.331381 103.028551 -58.191790 -75.229923 -0.465211 -0.040504 -12.826061 -7.125000 0.000000 0.000000 92.954858 -9.299149 43.930224 -86.836836 58.198134 -63.409672 1.779391 0.344057 -1.791361 7.125000 0.000000 0.000000 
2.863786 17.262195 -50.145907 -0.524772 -12.856970 28.788155 -13.798886 -0.822588 -44.328834 10.340690 18.694175 60.701367 7.100111 -17.622177 0.725757 0.012200 0.713800 1.961800 8.987030 -3.224677 -24.296125 -10.221944 -17.140273 59.315020 0.648481 -5.347203 16.086784 -1.707400 8.228000 -23.408700 -0.012510 1.920908 -4.878109 -1.289148 1.161087 -7.747297 0.755287 2.663986 -3.177093 -1.227500 0.739200 3.232000 -85.206163 11.348309 47.124113 105.791684 -57.758464 -77.539962 -0.460375 -0.021438 -12.823834 -7.125000 0.000000 0.000000 93.014319 -11.105926 42.124749 -82.184399 57.734920 -59.510274 1.826809 0.382609 -1.946581 7.125000 0.000000 0.000000 
2.825600 17.271205 -49.858231 -0.103178 -11.951381 28.688463 -13.919389 -1.261979 -42.855804 9.954005 18.427909 59.649957 7.249997 -17.894900 0.810558 0.011700 0.698200 1.918800 8.849264 -3.121677 -26.695859 -11.626508 -17.809604 63.253167 1.103760 -6.091206 13.617917 -1.986500 8.837900 -25.289500 0.002305 1.377025 -4.877543 -1.086884 0.875632 -7.811411 0.899189 2.698886 -3.305541 -1.148700 0.769900 3.164200 -85.561030 9.001723 46.888810 108.753032 -57.203174 -80.021512 -0.459137 -0.004370 -12.853191 -7.125000 0.000000 0.000000 93.061028 -13.036229 40.214634 -78.017735 57.183408 -55.936047 1.878454 0.394164 -1.994367 7.125000 0.000000 0.000000 
2.788059 17.278392 -49.567122 0.235368 -10.975884 28.635239 -13.914244 -1.727527 -41.313733 9.548259 18.143766 58.517641 7.396721 -18.079169 0.859429 0.007500 0.559200 1.536600 8.734996 -3.001560 -29.258400 -12.946369 -18.375857 66.964682 1.519622 -6.824675 11.181073 -2.336100 9.533700 -27.479400 0.025049 0.845217 -4.883191 -0.922574 0.589155 -7.866547 1.058945 2.706876 -3.406964 -1.056500 0.789300 3.118500 -85.914828 6.546244 46.650257 111.884686 -56.505147 -82.645209 -0.461321 0.011043 -12.939077 -7.125000 0.000000 0.000000 93.082657 -15.125436 38.199549 -74.647953 56.669666 -53.017345 1.929879 0.385057 -1.988757 7.125000 0.000000 0.000000 
2.749874 17.288045 -49.269148 0.505633 -9.976917 28.603040 -13.815393 -2.167273 -39.719744 9.110074 17.836360 57.287421 7.550238 -18.265733 0.983092 0.004700 0.444300 1.220900 8.616064 -2.861692 -31.923292 -14.157641 -18.846373 70.375240 1.885429 -7.542070 9.024485 -2.544500 9.918300 -28.712600 0.055363 0.343495 -4.891946 -0.775321 0.313020 -7.909973 1.215589 2.693364 -3.482086 -0.964600 0.797300 3.096200 -86.277755 4.019092 46.424867 115.163311 -55.641416 -85.384001 -0.465975 0.025667 -13.085949 -7.125000 0.000000 0.000000 93.071378 -17.407326 36.123940 -72.278428 56.299598 -50.989058 1.977407 0.370854 -2.035011 7.125000 0.000000 0.000000 
2.710830 17.299630 -48.963774 0.741714 -8.985930 28.572080 -13.662440 -2.562490 -38.072376 8.632460 17.500919 55.949111 7.710459 -18.460849 1.203662 0.003300 0.373200 1.025400 8.459487 -2.706534 -34.654138 -15.239148 -19.233263 73.425915 2.190559 -8.195791 7.162632 -2.654700 10.113800 -29.346200 0.094652 -0.127082 -4.901926 -0.612843 0.051279 -7.941464 1.342797 2.673520 -3.537204 -0.890900 0.797600 3.091300 -86.675092 1.472464 46.213358 118.566396 -54.587659 -88.210900 -0.473967 0.041314 -13.278622 -7.125000 0.000000 0.000000 93.016122 -19.894823 34.074626 -71.013746 56.144177 -49.974579 2.020117 0.367572 -2.241500 7.125000 0.000000 0.000000 
2.670285 17.314432 -48.649067 0.969669 -8.042364 28.535270 -13.488178 -2.890858 -36.381290 8.104945 17.131104 54.485676 7.880823 -18.698482 1.566858 0.003500 0.382800 1.051900 8.234334 -2.527898 -37.412714 -16.172341 -19.550412 76.056070 2.435561 -8.765055 5.595565 -2.683600 10.164400 -29.510600 0.141945 -0.565416 -4.910627 -0.417237 -0.192460 -7.949800 1.417007 2.667416 -3.582222 -0.852600 0.797000 3.095100 -87.110589 -1.034964 46.018149 122.058556 -53.322483 -91.088286 -0.484357 0.057356 -13.477476 -7.125000 0.000000 0.000000 92.910002 -22.571159 32.124966 -70.841100 56.230381 -49.973476 2.053712 0.380274 -2.728011 7.125000 0.000000 0.000000 
2.628024 17.333953 -48.323420 1.204751 -7.170586 28.493210 -13.306470 -3.145201 -34.653278 7.517900 16.721293 52.879846 8.057803 -18.974366 2.106362 0.004900 0.453300 1.245600 7.918290 -2.322498 -40.141279 -16.938747 -19.811817 78.217926 2.598820 -9.165824 4.278268 -2.678000 10.154600 -29.478700 0.199353 -0.983792 -4.917786 -0.165942 -0.421705 -7.931079 1.426465 2.702188 -3.617756 -0.856600 0.807400 3.101900 -87.582097 -3.434154 45.830712 125.585871 -51.833679 -93.964208 -0.498271 0.074036 -13.634955 -7.125000 0.000000 0.000000 92.729590 -25.388994 30.352320 -71.642060 56.539964 -50.876183 2.075356 0.411941 -3.534191 7.125000 0.000000 0.000000 
2.584368 17.358302 -47.987047 1.447635 -6.388655 28.462261 -13.118112 -3.324365 -32.893949 6.866215 16.265077 51.116926 8.227438 -19.211833 2.815843 0.005300 0.471200 1.294800 7.508840 -2.074477 -42.825529 -17.532367 -20.032833 79.881225 2.691771 -9.410555 3.222950 -2.653200 10.111200 -29.337700 0.266463 -1.393480 -4.924711 0.141639 -0.641712 -7.884231 1.373209 2.795989 -3.648398 -0.902100 0.838200 3.105500 -88.050325 -5.664413 45.644254 129.080965 -50.122263 -96.776819 -0.516525 0.089564 -13.736404 -7.125000 0.000000 0.000000 92.449966 -28.284222 28.806627 -73.224575 57.023586 -52.495903 2.083896 0.459866 -4.602459 7.125000 0.000000 0.000000 
2.539426 17.389301 -47.638553 1.678766 -5.694076 28.463625 -12.890184 -3.448748 -31.116945 6.141545 15.755672 49.188017 8.386178 -19.438931 3.794670 0.006700 0.529700 1.455400 7.033085 -1.772645 -45.446873 -17.941697 -20.224362 81.014877 2.721468 -9.500427 2.355238 -2.653700 10.112200 -29.340900 0.343940 -1.805768 -4.933699 0.492937 -0.859655 -7.807452 1.269371 2.960757 -3.664461 -0.980500 0.897300 3.109800 -88.453291 -7.668967 45.452600 132.471914 -48.206205 -99.461834 -0.538668 0.101580 -13.797742 -7.125000 0.000000 0.000000 92.047988 -31.189871 27.519121 -75.334062 57.612928 -54.578758 2.082552 0.511045 -5.772725 7.125000 0.000000 0.000000 
